<svg width="75" height="36" viewBox="0 0 75 36" fill="none" xmlns="http://www.w3.org/2000/svg">
<path d="M19.304 35.672C16.616 35.672 14.136 35.24 11.864 34.376C9.592 33.512 7.608 32.296 5.912 30.728C4.248 29.128 2.952 27.272 2.024 25.16C1.096 23.048 0.632 20.728 0.632 18.2C0.632 15.672 1.096 13.352 2.024 11.24C2.952 9.128 4.248 7.288 5.912 5.72C7.608 4.12 9.592 2.888 11.864 2.024C14.136 1.16 16.616 0.727998 19.304 0.727998C22.024 0.727998 24.504 1.16 26.744 2.024C29.016 2.888 30.984 4.12 32.648 5.72C34.312 7.288 35.608 9.128 36.536 11.24C37.496 13.352 37.976 15.672 37.976 18.2C37.976 20.728 37.496 23.064 36.536 25.208C35.608 27.32 34.312 29.16 32.648 30.728C30.984 32.296 29.016 33.512 26.744 34.376C24.504 35.24 22.024 35.672 19.304 35.672ZM19.304 27.8C20.584 27.8 21.768 27.576 22.856 27.128C23.976 26.68 24.936 26.04 25.736 25.208C26.568 24.344 27.208 23.32 27.656 22.136C28.136 20.952 28.376 19.64 28.376 18.2C28.376 16.728 28.136 15.416 27.656 14.264C27.208 13.08 26.568 12.072 25.736 11.24C24.936 10.376 23.976 9.72 22.856 9.272C21.768 8.824 20.584 8.6 19.304 8.6C18.024 8.6 16.824 8.824 15.704 9.272C14.616 9.72 13.656 10.376 12.824 11.24C12.024 12.072 11.384 13.08 10.904 14.264C10.456 15.416 10.232 16.728 10.232 18.2C10.232 19.64 10.456 20.952 10.904 22.136C11.384 23.32 12.024 24.344 12.824 25.208C13.656 26.04 14.616 26.68 15.704 27.128C16.824 27.576 18.024 27.8 19.304 27.8ZM59.7538 35.672C57.0978 35.672 54.6338 35.256 52.3618 34.424C50.0898 33.56 48.1218 32.344 46.4578 30.776C44.8258 29.208 43.5458 27.368 42.6178 25.256C41.6898 23.112 41.2258 20.76 41.2258 18.2C41.2258 15.64 41.6898 13.304 42.6178 11.192C43.5458 9.048 44.8418 7.192 46.5058 5.624C48.1698 4.056 50.1378 2.856 52.4098 2.024C54.7138 1.16 57.2258 0.727998 59.9458 0.727998C63.1138 0.727998 65.9458 1.256 68.4418 2.312C70.9378 3.368 73.0018 4.888 74.6338 6.872L68.5858 12.344C67.4338 11.096 66.1858 10.168 64.8418 9.56C63.5298 8.92 62.0578 8.6 60.4258 8.6C58.9858 8.6 57.6738 8.824 56.4898 9.272C55.3058 9.72 54.2978 10.376 53.4658 11.24C52.6338 12.072 51.9778 13.08 51.4978 14.264C51.0498 15.416 50.8258 16.728 50.8258 18.2C50.8258 19.608 51.0498 20.904 51.4978 22.088C51.9778 23.272 52.6338 24.296 53.4658 25.16C54.2978 25.992 55.2898 26.648 56.4418 27.128C57.6258 27.576 58.9218 27.8 60.3298 27.8C61.7378 27.8 63.1138 27.576 64.4578 27.128C65.8018 26.648 67.1618 25.848 68.5378 24.728L73.8658 31.4C71.9458 32.776 69.7218 33.832 67.1938 34.568C64.6658 35.304 62.1858 35.672 59.7538 35.672ZM65.4658 30.152V17.48H73.8658V31.4L65.4658 30.152Z" fill="#003B71"/>
</svg>
